<?xml version="1.0" encoding="iso-8859-1"?>
<!-- Generator: Adobe Illustrator 22.0.1, SVG Export Plug-In . SVG Version: 6.00 Build 0)  -->
<svg version="1.1" id="Warstwa_1" xmlns="http://www.w3.org/2000/svg" xmlns:xlink="http://www.w3.org/1999/xlink" x="0px" y="0px"
	 viewBox="0 0 336 85.333" style="enable-background:new 0 0 336 85.333;" xml:space="preserve">
<g>
	<path style="fill:#26AA00;" d="M8.153,68.769V27.672l-4.406-0.719l-2.068-7.014h14.658v51.797
		c-0.121,3.357-1.439,6.205-3.957,8.543c-2.518,2.339-5.456,3.508-8.813,3.508l-1.978-6.295c0.54,0,1.243-0.211,2.113-0.63
		c0.868-0.42,1.603-0.899,2.203-1.438C7.402,73.864,8.153,71.646,8.153,68.769z M15.482,8.742c-0.87,0.931-1.904,1.394-3.103,1.394
		c-1.2,0-2.264-0.463-3.192-1.394C8.257,7.813,7.793,6.75,7.793,5.55c0-1.198,0.464-2.232,1.394-3.102
		c0.929-0.869,1.993-1.304,3.192-1.304c1.199,0,2.233,0.436,3.103,1.304c0.868,0.87,1.304,1.904,1.304,3.102
		C16.786,6.75,16.35,7.813,15.482,8.742z"/>
	<path style="fill:#26AA00;" d="M62.198,36.575v11.87c0,5.036-1.38,9.204-4.137,12.5c-2.758,3.298-6.924,4.946-12.5,4.946
		c-5.575,0-9.788-1.664-12.635-4.991c-2.848-3.327-4.271-7.478-4.271-12.455v-11.87c0-5.695,1.453-10.056,4.362-13.084
		c2.907-3.026,7.028-4.541,12.365-4.541c5.335,0,9.472,1.574,12.41,4.721C60.729,26.818,62.198,31.12,62.198,36.575z M54.104,49.344
		v-12.77c0-6.354-2.848-9.532-8.543-9.532c-5.815,0-8.723,3.178-8.723,9.532v12.77c0,2.818,0.809,4.962,2.428,6.43
		c1.619,1.47,3.717,2.203,6.295,2.203c2.577,0,4.646-0.749,6.205-2.248C53.325,54.231,54.104,52.103,54.104,49.344z"/>
	<path style="fill:#26AA00;" d="M80.723,20.837c2.637-1.138,5.44-1.708,8.408-1.708c2.967,0,5.949,0.6,8.948,1.799
		c5.095,2.338,7.644,6.654,7.644,12.949v16.997c0,5.935-2.338,10.103-7.014,12.499c-3.538,1.799-7.495,2.698-11.871,2.698
		c-4.377,0-9.143-0.359-14.298-1.079V2.043h8.184V20.837z M80.723,29.29v28.597c1.678,0.36,3.447,0.54,5.306,0.54
		c1.857,0,3.671-0.194,5.44-0.585c1.768-0.389,3.237-1.169,4.406-2.338c1.169-1.169,1.754-2.652,1.754-4.451V35.765
		c0-2.577-0.69-4.586-2.068-6.025c-1.56-1.619-3.898-2.428-7.014-2.428C85.428,27.312,82.82,27.972,80.723,29.29z"/>
	<path style="fill:#26AA00;" d="M145.919,64.992h-29.856V2.043h30.036V4.83h-27.158v23.021h19.334l-0.989,2.877h-18.345v31.564
		h26.978V64.992z"/>
	<path style="fill:#26AA00;" d="M159.498,22.276c3.717-2.098,7.809-3.147,12.276-3.147c4.465,0,7.928,0.6,10.387,1.799
		c5.094,2.338,7.643,6.654,7.643,12.949v31.115h-2.877V33.877c0-3.417-0.99-6.115-2.969-8.093c-2.518-2.577-6.264-3.867-11.24-3.867
		s-9.383,1.05-13.219,3.147v39.928h-2.877V19.938h2.877V22.276z"/>
	<path style="fill:#26AA00;" d="M223.436,83.876l-0.81-2.428c2.458-0.899,4.331-2.113,5.621-3.643
		c1.288-1.528,1.934-3.912,1.934-7.149v-11.96c-3.179,4.917-7.945,7.374-14.299,7.374c-5.276,0-9.384-1.438-12.32-4.316
		c-2.938-2.878-4.406-7.073-4.406-12.59V35.765c0-5.275,1.574-9.367,4.722-12.275c3.147-2.907,7.329-4.361,12.544-4.361
		c6.354,0,10.972,2.129,13.85,6.385l-0.09-5.575h2.877v50.808c0,3.598-0.75,6.415-2.248,8.453
		C229.311,81.238,226.853,82.797,223.436,83.876z M230.181,50.154V31.179c-0.78-3.177-2.444-5.53-4.991-7.059
		c-2.549-1.529-5.501-2.293-8.858-2.293c-3.237,0-6.295,0.899-9.172,2.698c-1.5,0.96-2.729,2.444-3.688,4.452
		c-0.959,2.009-1.438,4.422-1.438,7.239v13.759c0,4.137,1.198,7.404,3.597,9.802c2.397,2.398,5.621,3.597,9.667,3.597
		c4.047,0,7.539-1.108,10.477-3.327C228.711,57.828,230.181,54.531,230.181,50.154z"/>
	<path style="fill:#26AA00;" d="M246.816,2.987c0,0.51-0.18,0.944-0.539,1.304c-0.36,0.36-0.796,0.54-1.305,0.54
		c-0.51,0-0.944-0.18-1.304-0.54s-0.539-0.794-0.539-1.304c0-0.509,0.18-0.944,0.539-1.304s0.794-0.54,1.304-0.54
		c0.509,0,0.944,0.18,1.305,0.54C246.637,2.043,246.816,2.478,246.816,2.987z M246.457,64.992h-2.878V19.938h2.878V64.992z"/>
	<path style="fill:#26AA00;" d="M262.643,22.276c3.717-2.098,7.809-3.147,12.275-3.147c4.465,0,7.928,0.6,10.387,1.799
		c5.095,2.338,7.644,6.654,7.644,12.949v31.115h-2.878V33.877c0-3.417-0.989-6.115-2.968-8.093
		c-2.518-2.577-6.265-3.867-11.24-3.867c-4.978,0-9.384,1.05-13.22,3.147v39.928h-2.878V19.938h2.878V22.276z"/>
	<path style="fill:#26AA00;" d="M316.778,63.643c4.496,0,9.231-1.379,14.208-4.137l1.26,2.338
		c-4.617,2.818-9.442,4.227-14.479,4.227c-10.432,0-15.647-4.375-15.647-13.129V34.506c0-4.856,1.514-8.633,4.541-11.331
		s7.028-4.047,12.006-4.047c4.976,0,8.857,1.335,11.646,4.002c2.787,2.668,4.182,6.371,4.182,11.106v9.622l-29.496,1.528v7.645
		c0,3.718,1.183,6.415,3.552,8.093C310.917,62.804,313.66,63.643,316.778,63.643z M331.616,41.161v-7.195
		c0-4.375-1.319-7.509-3.957-9.397c-2.639-1.888-5.755-2.833-9.353-2.833c-3.597,0-6.715,1.034-9.353,3.103
		c-2.639,2.068-3.956,5.292-3.956,9.667V42.6L331.616,41.161z"/>
</g>
<g>
</g>
<g>
</g>
<g>
</g>
<g>
</g>
<g>
</g>
<g>
</g>
<g>
</g>
<g>
</g>
<g>
</g>
<g>
</g>
<g>
</g>
<g>
</g>
<g>
</g>
<g>
</g>
<g>
</g>
</svg>
