<?xml version="1.0" encoding="utf-8"?>
<!-- Generator: Adobe Illustrator 22.0.1, SVG Export Plug-In . SVG Version: 6.00 Build 0)  -->
<svg version="1.1" id="Warstwa_1" xmlns="http://www.w3.org/2000/svg" xmlns:xlink="http://www.w3.org/1999/xlink" x="0px" y="0px"
	 viewBox="0 0 336 85.3" style="enable-background:new 0 0 336 85.3;" xml:space="preserve">
<style type="text/css">
	.st0{fill:#414141;}
	.st1{fill:#26AA00;}
</style>
<g>
	<path class="st0" d="M8.2,68.8V27.7L3.7,27l-2.1-7h14.7v51.8c-0.1,3.4-1.4,6.2-4,8.5c-2.5,2.3-5.5,3.5-8.8,3.5l-2-6.3
		c0.5,0,1.2-0.2,2.1-0.6s1.6-0.9,2.2-1.4C7.4,73.9,8.2,71.6,8.2,68.8z M15.5,8.7c-0.9,0.9-1.9,1.4-3.1,1.4s-2.3-0.5-3.2-1.4
		s-1.4-2-1.4-3.2s0.5-2.2,1.4-3.1c0.9-0.9,2-1.3,3.2-1.3s2.2,0.4,3.1,1.3c0.9,0.9,1.3,1.9,1.3,3.1C16.8,6.8,16.4,7.8,15.5,8.7z"/>
	<path class="st0" d="M62.2,36.6v11.9c0,5-1.4,9.2-4.1,12.5c-2.8,3.3-6.9,4.9-12.5,4.9s-9.8-1.7-12.6-5c-2.8-3.3-4.3-7.5-4.3-12.5
		V36.6c0-5.7,1.5-10.1,4.4-13.1s7-4.5,12.4-4.5c5.3,0,9.5,1.6,12.4,4.7C60.7,26.8,62.2,31.1,62.2,36.6z M54.1,49.3V36.6
		c0-6.4-2.8-9.5-8.5-9.5c-5.8,0-8.7,3.2-8.7,9.5v12.8c0,2.8,0.8,5,2.4,6.4c1.6,1.5,3.7,2.2,6.3,2.2s4.6-0.7,6.2-2.2
		C53.3,54.2,54.1,52.1,54.1,49.3z"/>
	<path class="st0" d="M80.7,20.8c2.6-1.1,5.4-1.7,8.4-1.7s5.9,0.6,8.9,1.8c5.1,2.3,7.6,6.7,7.6,12.9v17c0,5.9-2.3,10.1-7,12.5
		c-3.5,1.8-7.5,2.7-11.9,2.7s-9.1-0.4-14.3-1.1V2h8.2L80.7,20.8L80.7,20.8z M80.7,29.3v28.6c1.7,0.4,3.4,0.5,5.3,0.5
		s3.7-0.2,5.4-0.6c1.8-0.4,3.2-1.2,4.4-2.3c1.2-1.2,1.8-2.7,1.8-4.5V35.8c0-2.6-0.7-4.6-2.1-6c-1.6-1.6-3.9-2.4-7-2.4
		C85.4,27.3,82.8,28,80.7,29.3z"/>
	<path class="st1" d="M145.9,65H116V2h30v2.8h-27.2v23h19.3l-1,2.9h-18.3v31.6h27L145.9,65L145.9,65z"/>
	<path class="st1" d="M159.5,22.3c3.7-2.1,7.8-3.1,12.3-3.1s7.9,0.6,10.4,1.8c5.1,2.3,7.6,6.7,7.6,12.9V65h-2.9V33.9
		c0-3.4-1-6.1-3-8.1c-2.5-2.6-6.3-3.9-11.2-3.9s-9.4,1-13.2,3.1v40h-2.9V19.9h2.9L159.5,22.3L159.5,22.3z"/>
	<path class="st1" d="M223.4,83.9l-0.8-2.4c2.5-0.9,4.3-2.1,5.6-3.6s1.9-3.9,1.9-7.1v-12c-3.2,4.9-7.9,7.4-14.3,7.4
		c-5.3,0-9.4-1.4-12.3-4.3c-2.9-2.9-4.4-7.1-4.4-12.6V35.8c0-5.3,1.6-9.4,4.7-12.3c3.1-2.9,7.3-4.4,12.5-4.4c6.4,0,11,2.1,13.9,6.4
		l-0.1-5.6h2.9v50.8c0,3.6-0.8,6.4-2.2,8.5C229.3,81.2,226.9,82.8,223.4,83.9z M230.2,50.2v-19c-0.8-3.2-2.4-5.5-5-7.1
		c-2.5-1.5-5.5-2.3-8.9-2.3c-3.2,0-6.3,0.9-9.2,2.7c-1.5,1-2.7,2.4-3.7,4.5c-1,2-1.4,4.4-1.4,7.2V50c0,4.1,1.2,7.4,3.6,9.8
		c2.4,2.4,5.6,3.6,9.7,3.6c4,0,7.5-1.1,10.5-3.3C228.7,57.8,230.2,54.5,230.2,50.2z"/>
	<path class="st1" d="M246.5,65h-2.9V19.9h2.9V65z"/>
	<path class="st1" d="M262.6,22.3c3.7-2.1,7.8-3.1,12.3-3.1s7.9,0.6,10.4,1.8c5.1,2.3,7.6,6.7,7.6,12.9V65H290V33.9
		c0-3.4-1-6.1-3-8.1c-2.5-2.6-6.3-3.9-11.2-3.9c-5,0-9.4,1-13.2,3.1v40h-2.9V19.9h2.9L262.6,22.3L262.6,22.3z"/>
	<path class="st1" d="M316.8,63.6c4.5,0,9.2-1.4,14.2-4.1l1.3,2.3c-4.6,2.8-9.4,4.2-14.5,4.2c-10.4,0-15.6-4.4-15.6-13.1V34.5
		c0-4.9,1.5-8.6,4.5-11.3s7-4,12-4s8.9,1.3,11.6,4c2.8,2.7,4.2,6.4,4.2,11.1v9.6L305,45.4V53c0,3.7,1.2,6.4,3.6,8.1
		C310.9,62.8,313.7,63.6,316.8,63.6z M331.6,41.2V34c0-4.4-1.3-7.5-4-9.4c-2.6-1.9-5.8-2.8-9.4-2.8s-6.7,1-9.4,3.1
		c-2.6,2.1-4,5.3-4,9.7v8.1L331.6,41.2z"/>
</g>
<circle class="st1" cx="245.1" cy="5.6" r="4.6"/>
</svg>
